<?xml version="1.0" standalone="no"?><!DOCTYPE svg PUBLIC "-//W3C//DTD SVG 1.1//EN" "http://www.w3.org/Graphics/SVG/1.1/DTD/svg11.dtd"><svg t="1649733483902" class="icon" viewBox="0 0 1040 1024" version="1.1" xmlns="http://www.w3.org/2000/svg" p-id="4647" xmlns:xlink="http://www.w3.org/1999/xlink" width="203.125" height="200"><defs><style type="text/css"></style></defs><path d="M521.088 777.824V880h-18.176v-102.176c6.08 0.16 12.096 0.16 18.176 0z m-59.328-7.12c2.944 0.496 5.92 1.024 8.96 1.568l-12.096 68.592-8.96-1.6z m100.48-0.016l12.08 68.576-8.96 1.6-12.096-68.608 8.96-1.568z m-144.64-12.608c2.784 1.04 5.648 2.096 8.544 3.088l-23.888 65.424-8.544-3.104z m188.784 0l23.888 65.408-8.544 3.104-23.888-65.44c2.896-0.976 5.776-2.032 8.544-3.072z m41.28-20.16l34.848 60.32-7.856 4.544-34.848-60.304c2.576-1.44 5.216-2.96 7.856-4.576z m-271.328 0c2.64 1.6 5.28 3.104 7.856 4.56l-34.848 60.304-7.856-4.544z m-37.152-26.944c2.32 1.92 4.64 3.888 6.96 5.856l-44.816 53.376-6.96-5.84z m345.632-0.048l44.816 53.376-6.96 5.84-44.816-53.376c2.32-1.904 4.64-3.856 6.96-5.84z m31.904-33.12l53.408 44.8-5.824 6.96-53.44-44.8c2.016-2.304 3.952-4.64 5.856-6.944z m-409.44 0c1.888 2.336 3.84 4.656 5.84 6.96l-53.408 44.8-5.84-6.96z m435.2-38.032l60.32 34.832-4.528 7.856-60.352-34.816c1.6-2.64 3.104-5.28 4.56-7.872z m-460.944 0c1.44 2.592 2.976 5.216 4.576 7.872l-60.368 34.816-4.544-7.856z m479.632-41.92l65.44 23.872-3.088 8.528-65.456-23.872c1.072-2.784 2.112-5.632 3.104-8.544z m-498.336-0.048c1.008 2.912 2.048 5.76 3.104 8.544l-65.44 23.856-3.12-8.528z m509.44-44.576l68.64 12.096-1.6 8.96-68.624-12.112c0.56-2.912 1.088-5.904 1.584-8.944z m-520.56 0c0.512 3.04 1.04 6.032 1.6 8.96l-68.64 12.08-1.6-8.944z m-5.472-50.352c-0.16 3.056-0.16 6.096-0.16 9.072 0 2.976 0.048 6.032 0.16 9.088H144V502.88z m633.76 0v18.16h-102.24c0.16-3.056 0.16-6.112 0.16-9.088 0-2.976-0.048-6.032-0.16-9.072H880z m-40.704-53.248l1.6 8.96-68.64 12.096c-0.48-3.04-1.024-6.032-1.584-8.96l68.624-12.096z m-654.576 0l68.624 12.096c-0.592 2.928-1.12 5.92-1.6 8.96l-68.64-12.096 1.616-8.96zM823.52 393.76l3.104 8.528-65.456 23.872c-1.008-2.896-2.032-5.76-3.104-8.528l65.44-23.872z m-623.04 0l65.456 23.872c-1.072 2.768-2.096 5.632-3.104 8.528l-65.44-23.872 3.088-8.528z m25.264-52.304l60.368 34.816c-1.6 2.672-3.136 5.28-4.576 7.872l-60.32-34.832 4.528-7.856z m572.512 0l4.544 7.856-60.336 34.832a170.912 170.912 0 0 0-4.56-7.872l60.352-34.816z m-538.56-47.104l53.44 44.8c-2 2.288-3.968 4.64-5.856 6.944l-53.408-44.8 5.84-6.944z m504.592 0l5.84 6.944-53.408 44.8c-1.888-2.32-3.84-4.64-5.84-6.944l53.408-44.8z m-462.928-40.544l44.8 53.344c-2.336 1.904-4.656 3.856-6.944 5.888L294.4 259.632l6.96-5.824z m421.312-0.032l6.96 5.824-44.816 53.408c-2.32-2-4.64-3.952-6.96-5.856l44.816-53.376z m-373.36-32.64l34.848 60.32c-2.56 1.424-5.184 2.944-7.856 4.544l-34.848-60.32 7.856-4.544z m325.344 0l7.856 4.544-34.848 60.32c-2.64-1.6-5.28-3.12-7.856-4.56l34.848-60.304z m-272.384-23.824l23.888 65.44c-2.928 0.992-5.76 2.048-8.544 3.152l-23.888-65.408 8.544-3.184z m219.472-0.064l8.544 3.2-23.888 65.392a413.776 413.776 0 0 0-8.544-3.168l23.888-65.424z m-163.12-14.176l12.112 68.592c-3.04 0.48-6.048 1.008-8.96 1.568l-12.096-68.576 8.96-1.6z m106.752-0.016l8.96 1.6-12.096 68.56c-2.928-0.56-5.92-1.072-8.96-1.568l12.096-68.592zM521.12 144v102.16a230.544 230.544 0 0 0-18.176 0.032V144h18.176z" fill="#FFFFFF" fill-opacity=".88" p-id="4648"></path><path d="M512 320l-64 192h128z" fill="#00A0E9" p-id="4649"></path><path d="M512 704l-64-192h128z" fill="#FFFFFF" fill-opacity=".88" p-id="4650"></path><path d="M466.496 16h23.36l33.312 52.464 11.456 21.312h0.768a305.952 305.952 0 0 1-2.928-34.496V16h21.68v98.544h-23.232l-33.152-52.8-11.6-21.184h-0.768c1.072 10.656 2.784 23.04 2.784 34.368v39.552h-21.68V16z" fill="#00A0E9" p-id="4651"></path><path d="M483.36 980.032c8.24 6.72 18.464 10.56 29.104 10.928 11.92 0 18.272-4.4 18.272-11.328 0-7.328-6.96-9.6-17.184-13.312l-15.344-5.6a29.616 29.616 0 0 1-23.232-26.496c0-16.112 16.432-28.512 39.664-28.512a55.36 55.36 0 0 1 35.92 12.656l-11.616 12.384a40.112 40.112 0 0 0-24.304-8.112c-10.08 0-16.576 3.856-16.576 10.384 0 7.056 8.208 9.6 17.968 12.912l15.024 5.456c13.92 4.928 23.072 12.528 23.072 26.784C554.128 994.288 538.48 1008 512 1008a66.688 66.688 0 0 1-41.824-14.384l13.168-13.584z" fill="#D84141" p-id="4652"></path><path d="M944 464h70.4v16.384h-47.408v22.784h40.272v16.512h-40.272v26.368h49.104v16.512h-72zM0 464h22.272l8.704 45.792c1.6 9.888 3.392 19.904 5.008 29.936h0.592c2.208-10.032 4.576-20.176 6.928-29.936L56.192 464h18.592l12.688 45.792c2.352 9.6 4.56 19.776 6.928 29.936h0.736c1.6-10.16 3.2-20.176 4.8-29.936L108.48 464h20.8l-20.192 93.856h-27.2l-12.224-46.4c-1.76-7.36-3.392-14.592-4.72-21.696h-0.592c-1.472 7.104-2.944 14.4-4.8 21.696l-11.936 46.4h-26.72L0 464z" fill="#FFFFFF" fill-opacity=".88" p-id="4653"></path></svg>